<svg xmlns="http://www.w3.org/2000/svg" viewBox="0 0 420 80" fill="none">
  <g transform="translate(36, 40)">
    <!-- Outer ring -->
    <circle cx="0" cy="0" r="26" stroke="#F59E0B" stroke-width="1.5" fill="none" opacity="0.5"/>
    <!-- Broadcast arcs right -->
    <path d="M 28 -14 A 32 32 0 0 1 28 14" stroke="#F59E0B" stroke-width="2" fill="none" stroke-linecap="round" opacity="0.8"/>
    <path d="M 32 -20 A 38 38 0 0 1 32 20" stroke="#F59E0B" stroke-width="2" fill="none" stroke-linecap="round" opacity="0.5"/>
    <!-- Broadcast arcs left -->
    <path d="M -28 -14 A 32 32 0 0 0 -28 14" stroke="#F59E0B" stroke-width="2" fill="none" stroke-linecap="round" opacity="0.8"/>
    <path d="M -32 -20 A 38 38 0 0 0 -32 20" stroke="#F59E0B" stroke-width="2" fill="none" stroke-linecap="round" opacity="0.5"/>
    <!-- Bitcoin B simplified -->
    <g stroke="#F59E0B" stroke-width="2.2" fill="none" stroke-linecap="round">
      <!-- Spine -->
      <line x1="-8" y1="-12" x2="-8" y2="12"/>
      <!-- Horizontals -->
      <line x1="-8" y1="-12" x2="4" y2="-12"/>
      <line x1="-8" y1="0" x2="5" y2="0"/>
      <line x1="-8" y1="12" x2="4" y2="12"/>
      <!-- Top bump -->
      <path d="M 4 -12 A 6 6 0 0 1 4 0"/>
      <!-- Bottom bump -->
      <path d="M 5 0 A 6.5 6.5 0 0 1 5 12"/>
      <!-- Hash bars -->
      <line x1="-3" y1="-15" x2="-3" y2="15"/>
      <line x1="2" y1="-15" x2="2" y2="15"/>
    </g>
  </g>
  <!-- Title -->
  <text x="82" y="33" font-family="-apple-system, BlinkMacSystemFont, 'Segoe UI', sans-serif" font-weight="700" font-size="30" fill="#E6EDF3" letter-spacing="4">THE SIGNAL</text>
  <line x1="82" y1="44" x2="240" y2="44" stroke="#F59E0B" stroke-width="1.2" opacity="0.5"/>
  <text x="82" y="58" font-family="-apple-system, BlinkMacSystemFont, 'Segoe UI', sans-serif" font-size="12" fill="#8B949E" letter-spacing="1.5">Daily AI-Bitcoin Intelligence</text>
</svg>